<?xml version="1.0" standalone="no"?><!DOCTYPE svg PUBLIC "-//W3C//DTD SVG 1.1//EN" "http://www.w3.org/Graphics/SVG/1.1/DTD/svg11.dtd"><svg t="1752493644941" class="icon" viewBox="0 0 1024 1024" version="1.1" xmlns="http://www.w3.org/2000/svg" p-id="1489" xmlns:xlink="http://www.w3.org/1999/xlink" width="200" height="200"><path d="M978.98666667 981.22666667c13.44-13.44 13.44-35.41333333 0-48.85333334L861.65333333 814.93333333l71.78666667-71.78666666c13.54666667-13.54666667 13.54666667-35.84 0-49.38666667-13.54666667-13.54666667-35.84-13.54666667-49.38666667 0l-71.78666666 71.78666667-99.41333334-99.41333334 167.46666667-167.46666666c13.54666667-13.54666667 13.54666667-35.84 0-49.38666667s-35.84-13.54666667-49.38666667 0l-167.46666665 167.46666667-104.00000001-104c36.48-46.4 58.13333333-104.96 58.13333333-168.64 0-150.93333332-122.34666667-273.28-273.28-273.28000001-150.61333332 0-272.85333333 121.92-273.28 272.42666667-0.10666667 0.85333333-0.10666667 1.70666667-0.10666667 2.56 0 19.2 15.46666667 34.66666667 34.56 34.66666667s34.56000001-15.57333333 34.56-34.66666667l0-1.81333333C140.05333333 231.14666666 231.46666667 139.73333333 344.32 139.73333333s204.26666667 91.41333333 204.26666667 204.26666667S457.17333333 548.26666667 344.32 548.26666667c-26.77333333 0-52.37333334-5.12-75.84-14.50666668-5.01333333-2.77333333-10.77333333-4.37333333-16.85333333-4.37333332-19.09333333 0-34.56000001 15.57333333-34.56 34.66666667 0 15.25333333 9.70666667 28.16 23.36 32.85333333 32.10666667 13.22666667 67.09333333 20.48 103.89333333 20.48 62.40000001 0 119.89333333-20.90666668 165.97333333-56.10666667l128.96 128.95999999 148.8 148.80000001L930.13333333 981.22666667c13.44 13.44 35.41333333 13.44 48.85333334 0z" fill="#13227a" p-id="1490"></path><path d="M145.81333333 442.77333333a34.66666667 34.56 90 1 0 0 69.33333334 34.66666667 34.56 90 1 0 0-69.33333334Z" fill="#13227a" p-id="1491"></path></svg>